<svg xmlns="http://www.w3.org/2000/svg" version="1.1" xmlns:xlink="http://www.w3.org/1999/xlink" xmlns:svgjs="http://svgjs.dev/svgjs" width="2000" height="2000" viewBox="0 0 2000 2000"><g transform="matrix(1,0,0,1,-0.28443113772425477,-0.28443113772459583)"><svg viewBox="0 0 334 334" data-background-color="#ffffff" preserveAspectRatio="xMidYMid meet" height="2000" width="2000" xmlns="http://www.w3.org/2000/svg" xmlns:xlink="http://www.w3.org/1999/xlink"><g id="tight-bounds" transform="matrix(1,0,0,1,0.04749999999998522,0.04750000000001364)"><svg viewBox="0 0 333.90454557049503 333.90454557049503" height="333.90454557049503" width="333.90454557049503"><g><svg></svg></g><g><svg viewBox="0 0 333.90454557049503 333.90454557049503" height="333.90454557049503" width="333.90454557049503"><g><path d="M0 166.952c0-92.205 74.747-166.952 166.952-166.952 92.205 0 166.952 74.747 166.953 166.952 0 92.205-74.747 166.952-166.953 166.953-92.205 0-166.952-74.747-166.952-166.953zM166.952 316.63c82.665 0 149.677-67.013 149.678-149.678 0-82.665-67.013-149.677-149.678-149.677-82.665 0-149.677 67.013-149.677 149.677 0 82.665 67.013 149.677 149.677 149.678z" data-fill-palette-color="tertiary" fill="#000000" stroke="transparent"></path><ellipse rx="160.27418187383762" ry="160.27418187383762" cx="166.95227278524752" cy="166.95227278524752" fill="#000000" stroke="transparent" stroke-width="0" fill-opacity="1" data-fill-palette-color="tertiary"></ellipse></g><g transform="matrix(1,0,0,1,108.17866013600612,71.17305217166896)"><svg viewBox="0 0 117.5472252984828 191.55844122715712" height="191.55844122715712" width="117.5472252984828"><g><svg viewBox="0 0 117.5472252984828 191.55844122715712" height="191.55844122715712" width="117.5472252984828"><g><svg viewBox="0 0 117.5472252984828 191.55844122715712" height="191.55844122715712" width="117.5472252984828"><g><svg viewBox="0 0 117.5472252984828 191.55844122715712" height="191.55844122715712" width="117.5472252984828"><g id="textblocktransform"><svg viewBox="0 0 117.5472252984828 191.55844122715712" height="191.55844122715712" width="117.5472252984828" id="textblock"><g><svg viewBox="0 0 117.5472252984828 191.55844122715712" height="191.55844122715712" width="117.5472252984828"><g transform="matrix(1,0,0,1,0,0)"><svg width="117.5472252984828" viewBox="3 -37.099998474121094 22.950000762939453 37.39999771118164" height="191.55844122715712" data-palette-color="#ffffff"><path d="M14.3 0.3L14.3 0.3Q13.2 0.3 11.68 0.23 10.15 0.15 8.55 0.03 6.95-0.1 5.53-0.25 4.1-0.4 3.15-0.6L3.15-0.6 3.15-3.65Q4.4-3.55 6.2-3.45 8-3.35 10.08-3.3 12.15-3.25 14.15-3.25L14.15-3.25Q16.4-3.25 18.2-3.7 20-4.15 21.08-5.35 22.15-6.55 22.15-8.8L22.15-8.8 22.15-11.3Q22.15-13.85 20.85-15.18 19.55-16.5 16.65-16.5L16.65-16.5 12.7-16.5Q8.15-16.5 5.58-18.5 3-20.5 3-25.4L3-25.4 3-27.5Q3-32.7 5.8-34.9 8.6-37.1 13.7-37.1L13.7-37.1Q15.3-37.1 17.3-36.93 19.3-36.75 21.18-36.52 23.05-36.3 24.3-36.05L24.3-36.05 24.3-33Q22.1-33.2 19.33-33.35 16.55-33.5 14.1-33.5L14.1-33.5Q11.85-33.5 10.2-32.98 8.55-32.45 7.68-31.13 6.8-29.8 6.8-27.35L6.8-27.35 6.8-25.65Q6.8-22.6 8.4-21.45 10-20.3 12.85-20.3L12.85-20.3 17.1-20.3Q20.15-20.3 22.1-19.2 24.05-18.1 25-16.18 25.95-14.25 25.95-11.75L25.95-11.75 25.95-8.9Q25.95-5.2 24.38-3.2 22.8-1.2 20.18-0.45 17.55 0.3 14.3 0.3Z" opacity="1" transform="matrix(1,0,0,1,0,0)" fill="#ffffff" class="wordmark-text-0" data-fill-palette-color="quaternary" id="text-0"></path></svg></g></svg></g></svg></g></svg></g><g></g></svg></g></svg></g></svg></g></svg></g><defs></defs></svg><rect width="333.90454557049503" height="333.90454557049503" fill="none" stroke="none" visibility="hidden"></rect></g></svg></g></svg>